<svg width="91" height="103" viewBox="0 0 91 103" fill="none" xmlns="http://www.w3.org/2000/svg">
<path d="M22.84 65.3557L30.4 36.1557H35.64L43.16 65.3557H39.12L37.28 57.7557H28.72L26.88 65.3557H22.84ZM29.52 54.4757H36.48L34.4 45.7557C34 44.1557 33.68 42.7957 33.44 41.6757C33.2 40.5557 33.0533 39.7957 33 39.3957C32.9467 39.7957 32.8 40.5557 32.56 41.6757C32.32 42.7957 32.0133 44.1424 31.64 45.7157L29.52 54.4757Z" fill="white"/>
<path d="M48.5444 65.3557V36.1557H56.9844C59.6777 36.1557 61.7977 36.8357 63.3444 38.1957C64.9177 39.529 65.7044 41.369 65.7044 43.7157C65.7044 45.2357 65.2244 46.5957 64.2644 47.7957C63.331 48.969 62.1177 49.689 60.6244 49.9557V50.0757C61.7444 50.2091 62.731 50.609 63.5844 51.2757C64.4644 51.9424 65.1444 52.7957 65.6244 53.8357C66.131 54.8491 66.3844 55.9691 66.3844 57.1957C66.3844 59.7024 65.5844 61.689 63.9844 63.1557C62.411 64.6224 60.2644 65.3557 57.5444 65.3557H48.5444ZM52.4244 48.4757H56.9444C58.4377 48.4757 59.611 48.089 60.4644 47.3157C61.3177 46.5157 61.7444 45.4357 61.7444 44.0757C61.7444 42.689 61.3177 41.609 60.4644 40.8357C59.611 40.0357 58.451 39.6357 56.9844 39.6357H52.4244V48.4757ZM52.4244 61.8757H57.1844C58.811 61.8757 60.091 61.449 61.0244 60.5957C61.9577 59.7157 62.4244 58.5291 62.4244 57.0357C62.4244 55.4891 61.9577 54.2357 61.0244 53.2757C60.091 52.3157 58.811 51.8357 57.1844 51.8357H52.4244V61.8757Z" fill="white"/>
<path d="M43.25 3.03108C44.6423 2.22723 46.3577 2.22723 47.75 3.03108L86.3503 25.317C87.7426 26.1208 88.6003 27.6064 88.6003 29.2141V73.7859C88.6003 75.3936 87.7426 76.8792 86.3503 77.683L47.75 99.9689C46.3577 100.773 44.6423 100.773 43.25 99.9689L4.64969 77.683C3.25738 76.8792 2.39969 75.3936 2.39969 73.7859V29.2141C2.39969 27.6064 3.25738 26.1208 4.64969 25.317L43.25 3.03108Z" stroke="white" stroke-width="3"/>
</svg>
